<svg xmlns="http://www.w3.org/2000/svg" width="1200" height="3200" viewBox="0 0 1200 3200" font-family="'Hiragino Kaku Gothic ProN', 'Meiryo', sans-serif">

  <!-- 背景 -->
  <rect width="1200" height="3200" fill="#f5f5f5"/>

  <!-- ===== 1. ヘッダー ===== -->
  <rect x="0" y="0" width="1200" height="80" fill="#ffffff" stroke="#cccccc" stroke-width="1"/>
  <!-- ロゴエリア -->
  <rect x="40" y="15" width="200" height="50" fill="none" stroke="#999999" stroke-width="1.5" stroke-dasharray="4,2"/>
  <text x="140" y="43" text-anchor="middle" font-size="13" fill="#666666">㈱阿蘇J・Hファーム</text>
  <text x="140" y="57" text-anchor="middle" font-size="10" fill="#999999">ロゴ</text>
  <!-- グローバルナビ -->
  <text x="580" y="46" text-anchor="middle" font-size="13" fill="#999999">TOP</text>
  <!-- ABOUTアクティブ -->
  <rect x="630" y="25" width="72" height="30" fill="#333333" rx="2"/>
  <text x="666" y="44" text-anchor="middle" font-size="13" fill="#ffffff" font-weight="bold">ABOUT</text>
  <text x="760" y="46" text-anchor="middle" font-size="13" fill="#999999">MESSAGE</text>
  <text x="860" y="46" text-anchor="middle" font-size="13" fill="#999999">SYSTEM</text>
  <text x="945" y="46" text-anchor="middle" font-size="13" fill="#999999">BLOG</text>
  <text x="1060" y="46" text-anchor="middle" font-size="13" fill="#999999">PRESS RELEASE</text>
  <!-- ヘッダー区切り -->
  <line x1="0" y1="80" x2="1200" y2="80" stroke="#dddddd" stroke-width="1" stroke-dasharray="6,3"/>

  <!-- セクションラベル：ヘッダー -->
  <text x="8" y="12" font-size="10" fill="#aaaaaa">① HEADER</text>


  <!-- ===== 2. ページヒーロー ===== -->
  <!-- 背景写真エリア（×で表現） -->
  <rect x="0" y="80" width="1200" height="360" fill="#e8e8e8" stroke="#bbbbbb" stroke-width="1"/>
  <line x1="0" y1="80" x2="1200" y2="440" stroke="#cccccc" stroke-width="1.5"/>
  <line x1="1200" y1="80" x2="0" y2="440" stroke="#cccccc" stroke-width="1.5"/>
  <text x="600" y="230" text-anchor="middle" font-size="14" fill="#aaaaaa">風景写真（阿蘇・牧場イメージ）</text>
  <!-- オーバーレイ風テキストエリア -->
  <rect x="350" y="200" width="500" height="120" fill="rgba(0,0,0,0)" stroke="none"/>
  <text x="600" y="270" text-anchor="middle" font-size="42" fill="#333333" font-weight="bold" letter-spacing="6">ABOUT</text>
  <text x="600" y="310" text-anchor="middle" font-size="16" fill="#555555" letter-spacing="2">私たちについて</text>
  <!-- パンくずリスト -->
  <text x="600" y="420" text-anchor="middle" font-size="12" fill="#888888">HOME &gt; ABOUT</text>
  <!-- ヒーロー区切り -->
  <line x1="0" y1="440" x2="1200" y2="440" stroke="#dddddd" stroke-width="1" stroke-dasharray="6,3"/>
  <text x="8" y="92" font-size="10" fill="#aaaaaa">② PAGE HERO</text>


  <!-- ===== 3. 会社概要テーブル ===== -->
  <rect x="0" y="440" width="1200" height="520" fill="#ffffff" stroke="none"/>
  <!-- セクションタイトル -->
  <text x="600" y="510" text-anchor="middle" font-size="24" fill="#333333" font-weight="bold" letter-spacing="4">会社概要</text>
  <line x1="560" y1="520" x2="640" y2="520" stroke="#333333" stroke-width="2"/>
  <text x="600" y="545" text-anchor="middle" font-size="13" fill="#888888">Company Profile</text>

  <!-- テーブル外枠 -->
  <rect x="200" y="565" width="800" height="360" fill="none" stroke="#cccccc" stroke-width="1.5"/>

  <!-- 行1: 会社名 -->
  <rect x="200" y="565" width="200" height="50" fill="#f0f0f0" stroke="#cccccc" stroke-width="1"/>
  <text x="300" y="595" text-anchor="middle" font-size="13" fill="#555555" font-weight="bold">会社名</text>
  <rect x="400" y="565" width="600" height="50" fill="none" stroke="#cccccc" stroke-width="1"/>
  <text x="700" y="595" text-anchor="middle" font-size="13" fill="#333333">株式会社 阿蘇J・Hファーム</text>

  <!-- 行2: 設立 -->
  <rect x="200" y="615" width="200" height="50" fill="#f0f0f0" stroke="#cccccc" stroke-width="1"/>
  <text x="300" y="645" text-anchor="middle" font-size="13" fill="#555555" font-weight="bold">設立</text>
  <rect x="400" y="615" width="600" height="50" fill="none" stroke="#cccccc" stroke-width="1"/>
  <text x="700" y="645" text-anchor="middle" font-size="13" fill="#333333">〇〇〇〇年〇月</text>

  <!-- 行3: 代表者 -->
  <rect x="200" y="665" width="200" height="50" fill="#f0f0f0" stroke="#cccccc" stroke-width="1"/>
  <text x="300" y="695" text-anchor="middle" font-size="13" fill="#555555" font-weight="bold">代表者</text>
  <rect x="400" y="665" width="600" height="50" fill="none" stroke="#cccccc" stroke-width="1"/>
  <text x="700" y="695" text-anchor="middle" font-size="13" fill="#333333">代表取締役　井　真琴</text>

  <!-- 行4: 所在地 -->
  <rect x="200" y="715" width="200" height="50" fill="#f0f0f0" stroke="#cccccc" stroke-width="1"/>
  <text x="300" y="745" text-anchor="middle" font-size="13" fill="#555555" font-weight="bold">所在地</text>
  <rect x="400" y="715" width="600" height="50" fill="none" stroke="#cccccc" stroke-width="1"/>
  <text x="700" y="745" text-anchor="middle" font-size="13" fill="#333333">熊本県阿蘇郡産山村大利665-1</text>

  <!-- 行5: 事業内容 -->
  <rect x="200" y="765" width="200" height="50" fill="#f0f0f0" stroke="#cccccc" stroke-width="1"/>
  <text x="300" y="795" text-anchor="middle" font-size="13" fill="#555555" font-weight="bold">事業内容</text>
  <rect x="400" y="765" width="600" height="50" fill="none" stroke="#cccccc" stroke-width="1"/>
  <text x="700" y="795" text-anchor="middle" font-size="13" fill="#333333">和牛繁殖・一貫飼育、牛肉の生産・販売</text>

  <!-- 行6: 従業員数 -->
  <rect x="200" y="815" width="200" height="50" fill="#f0f0f0" stroke="#cccccc" stroke-width="1"/>
  <text x="300" y="845" text-anchor="middle" font-size="13" fill="#555555" font-weight="bold">従業員数</text>
  <rect x="400" y="815" width="600" height="50" fill="none" stroke="#cccccc" stroke-width="1"/>
  <text x="700" y="845" text-anchor="middle" font-size="13" fill="#333333">6名</text>

  <!-- 行7: 資本金 -->
  <rect x="200" y="865" width="200" height="60" fill="#f0f0f0" stroke="#cccccc" stroke-width="1"/>
  <text x="300" y="900" text-anchor="middle" font-size="13" fill="#555555" font-weight="bold">資本金</text>
  <rect x="400" y="865" width="600" height="60" fill="none" stroke="#cccccc" stroke-width="1"/>
  <text x="700" y="900" text-anchor="middle" font-size="13" fill="#333333">1,000万円</text>

  <!-- セクション区切り -->
  <line x1="0" y1="960" x2="1200" y2="960" stroke="#dddddd" stroke-width="1" stroke-dasharray="6,3"/>
  <text x="8" y="452" font-size="10" fill="#aaaaaa">③ 会社概要テーブル</text>


  <!-- ===== 4. 農場紹介セクション ===== -->
  <rect x="0" y="960" width="1200" height="480" fill="#fafafa" stroke="none"/>
  <!-- セクションタイトル -->
  <text x="600" y="1020" text-anchor="middle" font-size="24" fill="#333333" font-weight="bold" letter-spacing="4">農場紹介</text>
  <line x1="555" y1="1030" x2="645" y2="1030" stroke="#333333" stroke-width="2"/>
  <text x="600" y="1055" text-anchor="middle" font-size="13" fill="#888888">Our Farm</text>

  <!-- 左: 写真エリア -->
  <rect x="80" y="1080" width="480" height="300" fill="#e8e8e8" stroke="#bbbbbb" stroke-width="1.5"/>
  <line x1="80" y1="1080" x2="560" y2="1380" stroke="#cccccc" stroke-width="1.5"/>
  <line x1="560" y1="1080" x2="80" y2="1380" stroke="#cccccc" stroke-width="1.5"/>
  <text x="320" y="1235" text-anchor="middle" font-size="13" fill="#aaaaaa">農場写真</text>
  <text x="320" y="1255" text-anchor="middle" font-size="11" fill="#bbbbbb">（牛・牧場風景・施設）</text>

  <!-- 右: テキストエリア -->
  <rect x="620" y="1080" width="500" height="300" fill="none" stroke="#dddddd" stroke-width="1" stroke-dasharray="4,2"/>
  <text x="870" y="1130" text-anchor="middle" font-size="16" fill="#333333" font-weight="bold">阿蘇の大自然で育てる和牛</text>
  <rect x="640" y="1150" width="460" height="16" fill="#e0e0e0" rx="3"/>
  <rect x="640" y="1180" width="440" height="16" fill="#e0e0e0" rx="3"/>
  <rect x="640" y="1210" width="460" height="16" fill="#e0e0e0" rx="3"/>
  <rect x="640" y="1240" width="420" height="16" fill="#e0e0e0" rx="3"/>
  <rect x="640" y="1270" width="460" height="16" fill="#e0e0e0" rx="3"/>
  <rect x="640" y="1300" width="380" height="16" fill="#e0e0e0" rx="3"/>
  <text x="640" y="1150" font-size="11" fill="#aaaaaa">本文テキスト（農場の特徴・こだわり・飼育環境など）</text>

  <!-- セクション区切り -->
  <line x1="0" y1="1440" x2="1200" y2="1440" stroke="#dddddd" stroke-width="1" stroke-dasharray="6,3"/>
  <text x="8" y="972" font-size="10" fill="#aaaaaa">④ 農場紹介セクション</text>


  <!-- ===== 5. 沿革セクション ===== -->
  <rect x="0" y="1440" width="1200" height="620" fill="#ffffff" stroke="none"/>
  <!-- セクションタイトル -->
  <text x="600" y="1500" text-anchor="middle" font-size="24" fill="#333333" font-weight="bold" letter-spacing="4">沿革</text>
  <line x1="569" y1="1510" x2="631" y2="1510" stroke="#333333" stroke-width="2"/>
  <text x="600" y="1535" text-anchor="middle" font-size="13" fill="#888888">History</text>

  <!-- タイムライン縦線 -->
  <line x1="600" y1="1560" x2="600" y2="1990" stroke="#cccccc" stroke-width="2"/>

  <!-- タイムライン行1: 昭和49年 -->
  <circle cx="600" cy="1590" r="8" fill="#333333"/>
  <text x="555" y="1594" text-anchor="end" font-size="14" fill="#333333" font-weight="bold">昭和49年</text>
  <rect x="630" y="1572" width="530" height="44" fill="#f5f5f5" stroke="#dddddd" stroke-width="1" rx="2"/>
  <text x="650" y="1589" font-size="13" fill="#555555">共同経営者８名と「北海道から九州へ牛肉を届ける」を</text>
  <text x="650" y="1608" font-size="13" fill="#555555">コンセプトに㈱北九畜産設立</text>

  <!-- タイムライン行2: 平成15年 -->
  <circle cx="600" cy="1680" r="8" fill="#333333"/>
  <text x="555" y="1684" text-anchor="end" font-size="14" fill="#333333" font-weight="bold">平成15年</text>
  <rect x="630" y="1667" width="530" height="30" fill="#f5f5f5" stroke="#dddddd" stroke-width="1" rx="2"/>
  <text x="650" y="1686" font-size="13" fill="#555555">㈱阿蘇J・Hファーム設立（分社化）</text>

  <!-- タイムライン行3: 平成30年 -->
  <circle cx="600" cy="1760" r="8" fill="#333333"/>
  <text x="555" y="1764" text-anchor="end" font-size="14" fill="#333333" font-weight="bold">平成30年</text>
  <rect x="630" y="1747" width="530" height="30" fill="#f5f5f5" stroke="#dddddd" stroke-width="1" rx="2"/>
  <text x="650" y="1766" font-size="13" fill="#555555">代表取締役を井真琴に世代交代</text>

  <!-- タイムライン行4: 令和7年（現在・未記入） -->
  <circle cx="600" cy="1840" r="8" fill="#555555" stroke="#333333" stroke-width="2"/>
  <text x="555" y="1844" text-anchor="end" font-size="14" fill="#333333" font-weight="bold">令和7年</text>
  <rect x="630" y="1827" width="530" height="30" fill="#333333" stroke="#333333" stroke-width="1" rx="2"/>
  <text x="650" y="1846" font-size="13" fill="#ffffff" font-weight="bold">（内容は後日入力予定）</text>

  <!-- セクション区切り -->
  <line x1="0" y1="2060" x2="1200" y2="2060" stroke="#dddddd" stroke-width="1" stroke-dasharray="6,3"/>
  <text x="8" y="1452" font-size="10" fill="#aaaaaa">⑤ 沿革セクション（タイムライン）</text>


  <!-- ===== 6. アクセス・地図セクション ===== -->
  <rect x="0" y="2060" width="1200" height="520" fill="#fafafa" stroke="none"/>
  <!-- セクションタイトル -->
  <text x="600" y="2120" text-anchor="middle" font-size="24" fill="#333333" font-weight="bold" letter-spacing="4">アクセス</text>
  <line x1="556" y1="2130" x2="644" y2="2130" stroke="#333333" stroke-width="2"/>
  <text x="600" y="2155" text-anchor="middle" font-size="13" fill="#888888">Access</text>

  <!-- 左: 住所・アクセス情報 -->
  <rect x="80" y="2175" width="430" height="340" fill="none" stroke="#dddddd" stroke-width="1.5" stroke-dasharray="4,2"/>
  <text x="295" y="2215" text-anchor="middle" font-size="15" fill="#333333" font-weight="bold">所在地・交通アクセス</text>
  <line x1="100" y1="2225" x2="490" y2="2225" stroke="#eeeeee" stroke-width="1"/>
  <!-- 住所 -->
  <text x="110" y="2260" font-size="13" fill="#555555">〒869-2500</text>
  <text x="110" y="2285" font-size="13" fill="#555555">熊本県阿蘇郡産山村 〇〇〇-〇</text>
  <!-- 電話 -->
  <text x="110" y="2320" font-size="13" fill="#555555">TEL: 〇〇〇-〇〇〇〇-〇〇〇〇</text>
  <!-- アクセス情報テキスト -->
  <rect x="100" y="2345" width="390" height="16" fill="#e8e8e8" rx="2"/>
  <rect x="100" y="2375" width="360" height="16" fill="#e8e8e8" rx="2"/>
  <rect x="100" y="2405" width="390" height="16" fill="#e8e8e8" rx="2"/>
  <text x="100" y="2345" font-size="11" fill="#aaaaaa">・車でのアクセス（国道・ICからの経路）</text>
  <text x="100" y="2375" font-size="11" fill="#aaaaaa">・公共交通でのアクセス</text>
  <text x="100" y="2405" font-size="11" fill="#aaaaaa">・駐車場情報</text>
  <!-- お問い合わせボタン -->
  <rect x="160" y="2450" width="280" height="44" fill="#333333" rx="4"/>
  <text x="300" y="2477" text-anchor="middle" font-size="14" fill="#ffffff" font-weight="bold">お問い合わせはこちら</text>

  <!-- 右: Googleマップ埋め込みエリア -->
  <rect x="580" y="2175" width="540" height="340" fill="#e8e8e8" stroke="#bbbbbb" stroke-width="1.5"/>
  <line x1="580" y1="2175" x2="1120" y2="2515" stroke="#cccccc" stroke-width="1.5"/>
  <line x1="1120" y1="2175" x2="580" y2="2515" stroke="#cccccc" stroke-width="1.5"/>
  <text x="850" y="2340" text-anchor="middle" font-size="14" fill="#aaaaaa">Google マップ 埋め込みエリア</text>
  <text x="850" y="2365" text-anchor="middle" font-size="11" fill="#bbbbbb">iframe embed</text>

  <!-- セクション区切り -->
  <line x1="0" y1="2580" x2="1200" y2="2580" stroke="#dddddd" stroke-width="1" stroke-dasharray="6,3"/>
  <text x="8" y="2072" font-size="10" fill="#aaaaaa">⑥ アクセス・地図セクション</text>


  <!-- ===== 7. フッター ===== -->
  <rect x="0" y="2580" width="1200" height="180" fill="#333333" stroke="none"/>
  <!-- フッターロゴ -->
  <rect x="80" y="2610" width="200" height="50" fill="none" stroke="#666666" stroke-width="1" stroke-dasharray="4,2"/>
  <text x="180" y="2638" text-anchor="middle" font-size="13" fill="#aaaaaa">㈱阿蘇J・Hファーム</text>
  <text x="180" y="2652" text-anchor="middle" font-size="10" fill="#777777">フッターロゴ</text>
  <!-- フッターナビ -->
  <text x="600" y="2635" text-anchor="middle" font-size="12" fill="#999999">TOP　|　ABOUT　|　MESSAGE　|　SYSTEM　|　BLOG　|　PRESS RELEASE</text>
  <!-- フッター住所 -->
  <text x="600" y="2665" text-anchor="middle" font-size="11" fill="#777777">熊本県阿蘇郡産山村 　TEL: 〇〇〇-〇〇〇〇-〇〇〇〇</text>
  <!-- 区切り線 -->
  <line x1="80" y1="2695" x2="1120" y2="2695" stroke="#555555" stroke-width="1"/>
  <!-- コピーライト -->
  <text x="600" y="2730" text-anchor="middle" font-size="11" fill="#666666">© 2024 Aso J・H Farm Co., Ltd. All Rights Reserved.</text>
  <text x="8" y="2592" font-size="10" fill="#777777">⑦ FOOTER</text>


  <!-- ===== 全体寸法ガイド ===== -->
  <!-- 左端ルーラー -->
  <line x1="1165" y1="0" x2="1165" y2="2760" stroke="#dddddd" stroke-width="0.5" stroke-dasharray="2,4"/>
  <text x="1170" y="40" font-size="9" fill="#cccccc" transform="rotate(90, 1170, 40)">1200px</text>

  <!-- 凡例 -->
  <rect x="20" y="2800" width="400" height="160" fill="#ffffff" stroke="#cccccc" stroke-width="1" rx="4"/>
  <text x="220" y="2825" text-anchor="middle" font-size="13" fill="#333333" font-weight="bold">凡 例</text>
  <line x1="40" y1="2835" x2="400" y2="2835" stroke="#eeeeee" stroke-width="1"/>
  <!-- 凡例項目 -->
  <rect x="40" y="2845" width="40" height="25" fill="#e8e8e8" stroke="#bbbbbb" stroke-width="1"/>
  <line x1="40" y1="2845" x2="80" y2="2870" stroke="#cccccc" stroke-width="1"/>
  <line x1="80" y1="2845" x2="40" y2="2870" stroke="#cccccc" stroke-width="1"/>
  <text x="95" y="2862" font-size="12" fill="#555555">画像プレースホルダー（×斜線）</text>
  <rect x="40" y="2880" width="40" height="20" fill="#e0e0e0" rx="2"/>
  <text x="95" y="2894" font-size="12" fill="#555555">テキストプレースホルダー</text>
  <rect x="40" y="2910" width="40" height="20" fill="none" stroke="#999999" stroke-width="1.5" stroke-dasharray="4,2"/>
  <text x="95" y="2924" font-size="12" fill="#555555">コンテンツエリア（破線枠）</text>
  <rect x="40" y="2940" width="40" height="20" fill="#333333" rx="2"/>
  <text x="95" y="2954" font-size="12" fill="#555555">ボタン・アクティブ要素</text>

  <!-- ファイル情報 -->
  <text x="600" y="3100" text-anchor="middle" font-size="11" fill="#aaaaaa">wireframe_02_about.svg　|　㈱阿蘇J・Hファーム Webサイト　ABOUTページ　ワイヤーフレーム</text>
  <text x="600" y="3120" text-anchor="middle" font-size="11" fill="#aaaaaa">W: 1200px　|　制作：うぶやまデジタルサービス（UDS）　|　2026</text>

</svg>
